<svg xmlns="http://www.w3.org/2000/svg" viewBox="0 0 576 512">
  <defs/>
  <linearGradient id="a" x1="277.7451" x2="154.0398" y1="240.6284" y2="632.3618" gradientUnits="userSpaceOnUse">
    <stop offset=".002601" stop-color="#ca0000"/>
    <stop offset="1" stop-color="#9e5dfd"/>
  </linearGradient>
  <path fill="url(#a)" d="M121.4 504.1c9.4 8.1 23.3 10.9 35.9 4.2L288 439.6V259.4L121.4 504.1z"/>
  <linearGradient id="b" x1="294.5596" x2="65.1063" y1="254.1352" y2="353.2324" gradientUnits="userSpaceOnUse">
    <stop offset="0" stop-color="#470086"/>
    <stop offset="1" stop-color="#9e5dfd"/>
  </linearGradient>
  <path fill="url(#b)" d="M21.1 197c-2 10 .6 20.9 9.1 29.1l105.7 103-25 145.5c-2.1 12 2.6 22.7 10.5 29.5L288 259.4 21.1 197z"/>
  <linearGradient id="c" x1="283.6424" x2="170.5784" y1="260.2135" y2="118.551" gradientUnits="userSpaceOnUse">
    <stop offset="0" stop-color="#220027"/>
    <stop offset="1" stop-color="#005dfd"/>
  </linearGradient>
  <path fill="url(#c)" d="M288 259.4V0c-11.4 0-22.8 5.9-28.7 17.8L194 150.2 47.9 171.5c-14.6 2.1-24.3 13-26.8 25.5L288 259.4z"/>
  <linearGradient id="d" x1="269.6823" x2="409.3495" y1="273.9982" y2="546.0168" gradientUnits="userSpaceOnUse">
    <stop offset=".002601" stop-color="#ff7d00"/>
    <stop offset="1" stop-color="#ffd200"/>
  </linearGradient>
  <path fill="url(#d)" d="M288 259.4v180.2l130.7 68.7c12.6 6.6 26.5 3.9 35.8-4.2L288 259.4z"/>
  <linearGradient id="e" x1="283.3624" x2="575.3334" y1="299.1223" y2="366.9607" gradientUnits="userSpaceOnUse">
    <stop offset="0" stop-color="#e7ffab"/>
    <stop offset="1" stop-color="#00c65d"/>
  </linearGradient>
  <path fill="url(#e)" d="M554.9 197L288 259.4l166.5 244.7c7.9-6.8 12.6-17.5 10.6-29.5l-25-145.5 105.7-103c8.4-8.2 11-19.1 9.1-29.1z"/>
  <linearGradient id="f" x1="285.5114" x2="377.9578" y1="260.8135" y2="150.4099" gradientUnits="userSpaceOnUse">
    <stop offset="0" stop-color="#67a0d6"/>
    <stop offset="1" stop-color="#00c65d"/>
  </linearGradient>
  <path fill="url(#f)" d="M528.1 171.5L382 150.2 316.7 17.8C310.8 6 299.4 0 288 0v259.4L554.9 197c-2.5-12.5-12.2-23.4-26.8-25.5z"/>
  <radialGradient id="g" cx="288" cy="256.0176" r="261.8296" gradientUnits="userSpaceOnUse">
    <stop offset="0" stop-color="#fff"/>
    <stop offset="1" stop-color="#fff" stop-opacity="0"/>
  </radialGradient>
  <path fill="url(#g)" d="M528.1 171.5L382 150.2 316.7 17.8c-11.7-23.6-45.6-23.9-57.4 0L194 150.2 47.9 171.5c-26.2 3.8-36.7 36.1-17.7 54.6l105.7 103-25 145.5c-4.5 26.3 23.2 46 46.4 33.7L288 439.6l130.7 68.7c23.2 12.2 50.9-7.4 46.4-33.7l-25-145.5 105.7-103c19-18.5 8.5-50.8-17.7-54.6zM388.6 312.3l23.7 138.4L288 385.4l-124.3 65.3 23.7-138.4-100.6-98 139-20.2 62.2-126 62.2 126 139 20.2-100.6 98z" opacity=".45"/>
</svg>
