<svg xmlns="http://www.w3.org/2000/svg" width="33" height="24">
  <path fill="#7289da" d="M12.060102.51855624c-.426418.001762-3.9540286.10184212-7.6754809 2.86708326 0 0-3.96953939 7.1397185-3.96953939 15.9333605 0 0 2.31552859 3.969505 8.40767739 4.162466 0 0 1.0199465-1.212919 1.8469369-2.260437-3.5009187-1.04752-4.8240955-3.225171-4.8240955-3.225171s.2757232.192931.7719165.468591c.027584 0 .055048.02753.110182.05511.082698.05511.1654252.08271.2481225.137836.6891558.38593 1.3782927.689196 2.0123157.937295 1.1302168.468628 2.4810068.882082 4.0522848 1.185308 2.067471.385929 4.493258.523742 7.139625.02753 1.295612-.248101 2.618879-.606423 3.997194-1.185315.964821-.358357 2.039863-.882069 3.17008-1.626356 0 0-1.378292 2.232873-4.989475 3.252825.826991 1.019953 1.819395 2.205242 1.819395 2.205242 6.092148-.192961 8.407677-4.16249 8.407677-4.134924 0-8.793642-3.969545-15.9333606-3.969545-15.9333606C24.673399.43604037 20.896762.5187675 20.896762.5187675l-.385847.44104378C25.197181 2.365693 27.374869 4.4332164 27.374869 4.4332164c-2.866895-1.5437114-5.678594-2.315623-8.29739-2.6188544-1.984772-.2205277-3.886918-.1653313-5.568465.055226-.165395 0-.30319.027525-.468592.055108-.96482.1102639-3.3079333.441032-6.2575269 1.7366439-1.0199525.4410613-1.6264614.7719175-1.6264614.7719175S7.4168658 2.2554465 12.378798.84956474l-.275672-.3307559s-.01461-.00032871-.04302-.00022888zM11.358869 10.690748c1.571278 0 2.839341 1.350703 2.811775 3.032244 0 1.681547-1.240497 3.032355-2.811775 3.032355-1.5437118 0-2.8117813-1.350808-2.8117813-3.032355 0-1.681541 1.2404977-3.032244 2.8117813-3.032244zm10.061688 0c1.543711 0 2.811775 1.350703 2.811775 3.032244 0 1.681547-1.240498 3.032355-2.811775 3.032355-1.543712 0-2.811781-1.350808-2.811781-3.032355 0-1.681541 1.240497-3.032244 2.811781-3.032244z"/>
</svg>
