<svg xmlns="http://www.w3.org/2000/svg" width="24" height="24">
  <path fill="#231e1b" fill-rule="evenodd" d="M11.963928.52459327C5.4710564.52459327.2046159 5.7910338.2046159 12.283906c0 5.194298 3.390722 9.595021 8.0078753 11.182168.577144.07214.7935731-.288572.7935731-.577144v-2.020005c-3.2464358.721431-3.9678661-1.587146-3.9678661-1.587146-.5050011-1.370718-1.2985744-1.731433-1.2985744-1.731433-1.0821452-.72143.072144-.72143.072144-.72143 1.1542882.07214 1.8035754 1.226432 1.8035754 1.226432 1.0821454 1.803575 2.7414347 1.298574 3.3907219 1.010002.072144-.793573.4328581-1.298574.7214303-1.587146-2.5971487-.288573-5.3385836-1.298575-5.3385836-5.843586 0-1.298573.4328582-2.3085764 1.2264314-3.1742926-.1442868-.2885721-.5050018-1.5150036.1442853-3.1021498 0 0 1.0100022-.2885721 3.2464358 1.2264312.9378588-.2885722 1.9478617-.3607151 2.9578637-.3607151 1.010003 0 2.020005.1442861 2.957865.3607151 2.236432-1.5150033 3.246436-1.2264312 3.246436-1.2264312.649286 1.5871462.216429 2.8135777.144285 3.1021498.72143.7935733 1.226431 1.8757196 1.226431 3.1742926 0 4.545011-2.741434 5.48287-5.338583 5.771442.432858.360716.793573 1.082146.793573 2.164291v3.246435c0 .288573.21643.649288.793573.577145 4.689297-1.587147 8.007876-5.987871 8.007876-11.182169C23.72324 5.7910338 18.456799.52459327 11.963928.52459327z"/>
</svg>
